<svg width="145" height="15" viewBox="0 0 145 15" fill="none" xmlns="http://www.w3.org/2000/svg">
<path d="M0.187589 14V0.909091H2.95534V11.718H8.56756V14H0.187589ZM12.9909 14H10.0249L14.5441 0.909091H18.1109L22.6237 14H19.6578L16.3786 3.90057H16.2764L12.9909 14ZM12.8055 8.8544H19.8112V11.0149H12.8055V8.8544ZM24.1993 14V0.909091H29.4408C30.4039 0.909091 31.2071 1.05185 31.8506 1.33736C32.4941 1.62287 32.9777 2.01918 33.3016 2.52628C33.6254 3.02912 33.7874 3.60866 33.7874 4.26491C33.7874 4.77628 33.6851 5.22585 33.4806 5.61364C33.276 5.99716 32.9948 6.3125 32.6368 6.55966C32.2831 6.80256 31.8783 6.97514 31.4223 7.07741V7.20526C31.9209 7.22656 32.3875 7.36719 32.8222 7.62713C33.2611 7.88707 33.6169 8.25142 33.8896 8.72017C34.1624 9.18466 34.2987 9.73864 34.2987 10.3821C34.2987 11.0767 34.1262 11.6967 33.781 12.2422C33.4401 12.7834 32.9351 13.2116 32.2661 13.527C31.597 13.8423 30.7725 14 29.7923 14H24.1993ZM26.9671 11.7372H29.2235C29.9948 11.7372 30.5573 11.5902 30.911 11.2962C31.2646 10.9979 31.4415 10.6016 31.4415 10.1072C31.4415 9.74503 31.3541 9.42543 31.1794 9.14844C31.0047 8.87145 30.7554 8.65412 30.4316 8.49645C30.1119 8.33878 29.7306 8.25994 29.2874 8.25994H26.9671V11.7372ZM26.9671 6.38707H29.0189C29.3982 6.38707 29.7348 6.32102 30.0289 6.18892C30.3271 6.05256 30.5615 5.8608 30.732 5.61364C30.9067 5.36648 30.9941 5.07031 30.9941 4.72514C30.9941 4.25213 30.8257 3.87074 30.4891 3.58097C30.1567 3.29119 29.6837 3.14631 29.07 3.14631H26.9671V6.38707ZM36.0997 14V0.909091H38.8675V6.31037H44.4861V0.909091H47.2474V14H44.4861V8.59233H38.8675V14H36.0997ZM51.7858 14H48.8199L53.339 0.909091H56.9058L61.4186 14H58.4527L55.1736 3.90057H55.0713L51.7858 14ZM51.6004 8.8544H58.6061V11.0149H51.6004V8.8544ZM62.9942 0.909091H66.4076L70.0127 9.70455H70.1661L73.7712 0.909091H77.1846V14H74.4999V5.4794H74.3912L71.0035 13.9361H69.1753L65.7876 5.44744H65.6789V14H62.9942V0.909091ZM83.6309 14V0.909091H86.3987V6.31037H92.0173V0.909091H94.7787V14H92.0173V8.59233H86.3987V14H83.6309ZM109.09 7.45455C109.09 8.8821 108.82 10.0966 108.279 11.098C107.742 12.0994 107.009 12.8643 106.08 13.3928C105.155 13.9169 104.115 14.179 102.96 14.179C101.797 14.179 100.753 13.9148 99.8284 13.3864C98.9037 12.858 98.1729 12.093 97.6359 11.0916C97.099 10.0902 96.8305 8.87784 96.8305 7.45455C96.8305 6.02699 97.099 4.8125 97.6359 3.81108C98.1729 2.80966 98.9037 2.04687 99.8284 1.52273C100.753 0.994318 101.797 0.730113 102.96 0.730113C104.115 0.730113 105.155 0.994318 106.08 1.52273C107.009 2.04687 107.742 2.80966 108.279 3.81108C108.82 4.8125 109.09 6.02699 109.09 7.45455ZM106.284 7.45455C106.284 6.52983 106.146 5.75 105.869 5.11506C105.596 4.48011 105.21 3.99858 104.712 3.67045C104.213 3.34233 103.63 3.17827 102.96 3.17827C102.291 3.17827 101.708 3.34233 101.209 3.67045C100.71 3.99858 100.323 4.48011 100.046 5.11506C99.773 5.75 99.6366 6.52983 99.6366 7.45455C99.6366 8.37926 99.773 9.15909 100.046 9.79403C100.323 10.429 100.71 10.9105 101.209 11.2386C101.708 11.5668 102.291 11.7308 102.96 11.7308C103.63 11.7308 104.213 11.5668 104.712 11.2386C105.21 10.9105 105.596 10.429 105.869 9.79403C106.146 9.15909 106.284 8.37926 106.284 7.45455ZM119.227 0.909091H121.994V9.41051C121.994 10.3651 121.766 11.2003 121.31 11.9162C120.859 12.6321 120.226 13.1903 119.412 13.5909C118.598 13.9872 117.65 14.1854 116.568 14.1854C115.481 14.1854 114.531 13.9872 113.717 13.5909C112.903 13.1903 112.27 12.6321 111.818 11.9162C111.367 11.2003 111.141 10.3651 111.141 9.41051V0.909091H113.908V9.17401C113.908 9.67259 114.017 10.1158 114.234 10.5036C114.456 10.8913 114.767 11.196 115.168 11.4176C115.568 11.6392 116.035 11.75 116.568 11.75C117.104 11.75 117.571 11.6392 117.967 11.4176C118.368 11.196 118.677 10.8913 118.894 10.5036C119.116 10.1158 119.227 9.67259 119.227 9.17401V0.909091ZM131.373 4.67401C131.322 4.15838 131.103 3.75781 130.715 3.4723C130.327 3.18679 129.801 3.04403 129.136 3.04403C128.684 3.04403 128.303 3.10795 127.992 3.2358C127.681 3.35937 127.442 3.53196 127.276 3.75355C127.114 3.97514 127.033 4.22656 127.033 4.50781C127.024 4.74219 127.073 4.94673 127.18 5.12145C127.291 5.29616 127.442 5.44744 127.634 5.57528C127.826 5.69886 128.047 5.80753 128.299 5.90128C128.55 5.99077 128.818 6.06747 129.104 6.13139L130.28 6.41264C130.851 6.54048 131.375 6.71094 131.853 6.92401C132.33 7.13707 132.743 7.39915 133.093 7.71023C133.442 8.02131 133.713 8.38778 133.904 8.80966C134.1 9.23153 134.201 9.7152 134.205 10.2607C134.201 11.0618 133.996 11.7564 133.591 12.3445C133.191 12.9283 132.611 13.3821 131.853 13.706C131.098 14.0256 130.188 14.1854 129.123 14.1854C128.066 14.1854 127.146 14.0234 126.362 13.6996C125.582 13.3757 124.973 12.8963 124.534 12.2614C124.099 11.6222 123.871 10.8317 123.85 9.88991H126.528C126.558 10.3288 126.684 10.6953 126.905 10.9893C127.131 11.2791 127.431 11.4986 127.806 11.6477C128.186 11.7926 128.614 11.8651 129.091 11.8651C129.56 11.8651 129.967 11.7969 130.312 11.6605C130.661 11.5241 130.932 11.3345 131.124 11.0916C131.316 10.8487 131.411 10.5696 131.411 10.2543C131.411 9.96023 131.324 9.71307 131.149 9.51278C130.979 9.3125 130.728 9.14205 130.395 9.00142C130.067 8.8608 129.664 8.73295 129.187 8.6179L127.762 8.25994C126.658 7.99148 125.786 7.57173 125.147 7.00071C124.508 6.42969 124.191 5.66051 124.195 4.69318C124.191 3.90057 124.402 3.2081 124.828 2.61577C125.258 2.02344 125.848 1.56108 126.598 1.22869C127.348 0.896306 128.201 0.730113 129.155 0.730113C130.127 0.730113 130.975 0.896306 131.699 1.22869C132.428 1.56108 132.995 2.02344 133.399 2.61577C133.804 3.2081 134.013 3.89418 134.026 4.67401H131.373ZM136.066 14V0.909091H144.888V3.19105H138.834V6.31037H144.434V8.59233H138.834V11.718H144.913V14H136.066Z" fill="#E51F43"/>
</svg>
